<?xml version="1.0" standalone="no"?>
<!DOCTYPE svg PUBLIC "-//W3C//DTD SVG 20010904//EN"
 "http://www.w3.org/TR/2001/REC-SVG-20010904/DTD/svg10.dtd">
<svg version="1.0" xmlns="http://www.w3.org/2000/svg"
 width="128.000000pt" height="128.000000pt" viewBox="0 0 128.000000 128.000000"
 preserveAspectRatio="xMidYMid meet">
<metadata>
Created by potrace 1.11, written by Peter Selinger 2001-2013
</metadata>
<g transform="translate(0.000000,128.000000) scale(0.100000,-0.100000)"
fill="#000000" stroke="none">
<path d="M1069 1225 c-3 -2 -23 -7 -45 -11 -21 -3 -43 -7 -49 -9 -10 -2 -77
-15 -105 -20 -8 -2 -35 -8 -60 -14 -25 -5 -56 -12 -70 -15 -14 -2 -140 -28
-280 -56 -140 -28 -264 -54 -275 -56 -11 -2 -30 -6 -41 -8 -58 -12 -59 -15
-56 -177 2 -85 7 -149 13 -149 5 0 9 -128 9 -330 0 -326 0 -330 21 -330 13 0
18 -4 13 -12 -6 -11 -4 -11 7 0 17 16 32 16 23 0 -6 -10 -4 -10 7 -2 16 12 29
12 48 0 10 -6 12 -5 7 2 -4 7 -2 12 3 12 6 0 11 -6 11 -12 0 -8 3 -9 8 -3 11
15 46 19 36 4 -5 -8 -3 -9 7 -3 24 14 51 16 43 2 -6 -10 -5 -10 7 -1 11 9 19
9 26 2 8 -8 13 -8 17 0 4 6 12 11 17 11 6 0 7 -6 3 -12 -5 -8 0 -7 11 2 19 16
21 16 44 -3 12 -9 13 -9 7 1 -4 6 -2 12 3 12 6 0 11 -6 11 -12 0 -8 3 -9 8 -3
11 15 46 19 36 4 -5 -8 -3 -9 7 -3 24 14 51 16 43 2 -6 -10 -5 -10 7 -1 11 9
19 9 26 2 8 -8 13 -8 17 0 4 6 12 11 17 11 6 0 7 -6 3 -13 -5 -7 0 -6 11 3 10
8 19 15 20 15 1 0 10 -7 20 -15 11 -9 16 -10 11 -2 -4 6 -2 12 3 12 6 0 11 -6
11 -12 0 -8 3 -9 8 -3 11 15 46 19 36 4 -5 -8 -3 -9 7 -3 24 14 51 16 43 2 -6
-10 -5 -10 7 -1 11 9 19 9 26 2 8 -8 13 -8 17 0 4 6 12 11 17 11 6 0 7 -6 3
-12 -5 -8 0 -7 11 2 19 16 21 16 44 -3 12 -9 13 -9 7 1 -4 6 -2 12 3 12 6 0
11 -6 11 -12 0 -8 3 -9 8 -3 11 15 46 19 36 4 -5 -8 -3 -9 7 -3 24 14 51 16
43 2 -6 -10 -4 -10 8 0 11 9 18 10 23 2 4 -7 12 -7 26 0 10 6 19 7 19 3 0 -4
5 -1 10 7 6 9 10 147 10 338 0 217 3 322 10 322 7 0 10 27 8 73 l-3 72 -455 5
c-250 3 -450 7 -445 8 6 1 -1 9 -15 17 -14 8 -23 15 -20 15 3 1 12 3 20 5 8 2
26 6 40 9 14 3 45 10 70 16 25 5 56 12 70 14 25 5 217 43 255 52 11 2 31 6 45
9 30 5 116 22 148 29 13 3 31 7 40 10 9 3 34 7 56 11 21 3 41 7 45 9 3 2 28 7
55 10 57 8 89 23 80 37 -3 6 -8 24 -11 41 -9 61 -21 78 -51 78 -16 0 -31 -2
-33 -5z"/>
</g>
</svg>
